<svg width="10" height="18" viewBox="0 0 10 18" fill="none" xmlns="http://www.w3.org/2000/svg">
<path d="M3.36655 9.82845C3.2572 9.71999 3.1704 9.59095 3.11117 9.44878C3.05194 9.30662 3.02145 9.15413 3.02145 9.00011C3.02145 8.8461 3.05194 8.69361 3.11117 8.55144C3.1704 8.40927 3.2572 8.28024 3.36655 8.17178L8.72155 2.82844C8.8309 2.71999 8.91769 2.59095 8.97692 2.44878C9.03615 2.30661 9.06665 2.15412 9.06665 2.00011C9.06665 1.8461 9.03615 1.69361 8.97692 1.55144C8.91769 1.40927 8.8309 1.28023 8.72155 1.17178C8.50296 0.954485 8.20726 0.83252 7.89905 0.83252C7.59083 0.83252 7.29514 0.954485 7.07655 1.17178L1.72155 6.52678C1.06611 7.18303 0.69796 8.07261 0.69796 9.00011C0.69796 9.92762 1.06611 10.8172 1.72155 11.4734L7.07655 16.8284C7.29385 17.044 7.58715 17.1655 7.89321 17.1668C8.04675 17.1677 8.19896 17.1382 8.34111 17.0802C8.48325 17.0221 8.61253 16.9366 8.72155 16.8284C8.8309 16.72 8.91769 16.591 8.97692 16.4488C9.03615 16.3066 9.06665 16.1541 9.06665 16.0001C9.06665 15.8461 9.03615 15.6936 8.97692 15.5514C8.91769 15.4093 8.8309 15.2802 8.72155 15.1718L3.36655 9.82845Z" fill="#2C2E41"/>
</svg>
