<svg width="25" height="25" viewBox="0 0 25 25" fill="none" xmlns="http://www.w3.org/2000/svg">
<g clip-path="url(#clip0_63_7289)">
<path d="M18 2.4165C16.8739 2.43402 15.7724 2.74836 14.8067 3.32778C13.841 3.90719 13.0453 4.73117 12.5 5.7165C11.9546 4.73117 11.1589 3.90719 10.1932 3.32778C9.2275 2.74836 8.12601 2.43402 6.99996 2.4165C5.2049 2.49449 3.51366 3.27976 2.29574 4.60074C1.07782 5.92171 0.432208 7.67103 0.499958 9.4665C0.499958 14.0135 5.28596 18.9795 9.29996 22.3465C10.1962 23.0996 11.3293 23.5125 12.5 23.5125C13.6706 23.5125 14.8037 23.0996 15.7 22.3465C19.714 18.9795 24.5 14.0135 24.5 9.4665C24.5677 7.67103 23.9221 5.92171 22.7042 4.60074C21.4863 3.27976 19.795 2.49449 18 2.4165ZM14.415 20.8165C13.8789 21.2679 13.2007 21.5154 12.5 21.5154C11.7992 21.5154 11.121 21.2679 10.585 20.8165C5.44696 16.5055 2.49996 12.3695 2.49996 9.4665C2.4316 8.20122 2.86632 6.96023 3.70932 6.0142C4.55232 5.06817 5.73519 4.49385 6.99996 4.4165C8.26472 4.49385 9.4476 5.06817 10.2906 6.0142C11.1336 6.96023 11.5683 8.20122 11.5 9.4665C11.5 9.73172 11.6053 9.98607 11.7929 10.1736C11.9804 10.3611 12.2347 10.4665 12.5 10.4665C12.7652 10.4665 13.0195 10.3611 13.2071 10.1736C13.3946 9.98607 13.5 9.73172 13.5 9.4665C13.4316 8.20122 13.8663 6.96023 14.7093 6.0142C15.5523 5.06817 16.7352 4.49385 18 4.4165C19.2647 4.49385 20.4476 5.06817 21.2906 6.0142C22.1336 6.96023 22.5683 8.20122 22.5 9.4665C22.5 12.3695 19.553 16.5055 14.415 20.8125V20.8165Z" fill="#2C2E41"/>
</g>
<defs>
<clipPath id="clip0_63_7289">
<rect width="24" height="24" fill="white" transform="translate(0.5 0.5)"/>
</clipPath>
</defs>
</svg>
