<svg width="37" height="37" viewBox="0 0 37 37" fill="none" xmlns="http://www.w3.org/2000/svg">
<g clip-path="url(#clip0_63_7345)">
<path d="M26.7499 3.375C25.0609 3.40127 23.4086 3.87278 21.9601 4.74191C20.5115 5.61103 19.318 6.847 18.4999 8.325C17.6819 6.847 16.4883 5.61103 15.0398 4.74191C13.5912 3.87278 11.939 3.40127 10.2499 3.375C7.55735 3.49199 5.0205 4.66988 3.19361 6.65135C1.36673 8.63282 0.398312 11.2568 0.499937 13.95C0.499937 20.7705 7.67894 28.2195 13.6999 33.27C15.0443 34.3997 16.744 35.019 18.4999 35.019C20.2559 35.019 21.9556 34.3997 23.2999 33.27C29.3209 28.2195 36.4999 20.7705 36.4999 13.95C36.6016 11.2568 35.6331 8.63282 33.8063 6.65135C31.9794 4.66988 29.4425 3.49199 26.7499 3.375Z" fill="#2C2E41"/>
</g>
<defs>
<clipPath id="clip0_63_7345">
<rect width="36" height="36" fill="white" transform="translate(0.5 0.5)"/>
</clipPath>
</defs>
</svg>
