<svg width="20" height="19" viewBox="0 0 20 19" fill="none" xmlns="http://www.w3.org/2000/svg">
<path d="M14.5833 0.597168C13.645 0.611764 12.7271 0.873712 11.9223 1.35656C11.1176 1.83941 10.4545 2.52606 10 3.34717C9.54554 2.52606 8.88245 1.83941 8.0777 1.35656C7.27296 0.873712 6.35505 0.611764 5.41667 0.597168C3.92079 0.66216 2.51143 1.31655 1.49649 2.41736C0.481556 3.51818 -0.0564528 4.97594 5.93206e-06 6.47217C5.93206e-06 10.2613 3.98834 14.3997 7.33334 17.2055C8.08019 17.8331 9.02447 18.1772 10 18.1772C10.9755 18.1772 11.9198 17.8331 12.6667 17.2055C16.0117 14.3997 20 10.2613 20 6.47217C20.0565 4.97594 19.5185 3.51818 18.5035 2.41736C17.4886 1.31655 16.0792 0.66216 14.5833 0.597168Z" fill="#14C7A2"/>
</svg>
