<svg width="37" height="37" viewBox="0 0 37 37" fill="none" xmlns="http://www.w3.org/2000/svg">
<path d="M18.5 22.9878C16.0147 22.9878 14 25.0025 14 27.4878V36.4878H23V27.4878C23 25.0025 20.9853 22.9878 18.5 22.9878Z" fill="#2C2E41"/>
<path d="M26 27.4883V36.4883H32C34.4853 36.4883 36.5 34.4736 36.5 31.9883V18.3068C36.5004 17.5276 36.1975 16.7787 35.6555 16.2188L22.9085 2.4383C20.6594 0.00478745 16.8633 -0.144627 14.4298 2.10453C14.3142 2.2114 14.2029 2.32271 14.096 2.4383L1.37152 16.2143C0.813102 16.7766 0.499789 17.5369 0.5 18.3293V31.9883C0.5 34.4736 2.51473 36.4883 5 36.4883H11V27.4883C11.028 23.3981 14.3304 20.058 18.3176 19.9618C22.4382 19.8624 25.9686 23.2594 26 27.4883Z" fill="#2C2E41"/>
<path d="M18.5 22.9878C16.0147 22.9878 14 25.0025 14 27.4878V36.4878H23V27.4878C23 25.0025 20.9853 22.9878 18.5 22.9878Z" fill="#2C2E41"/>
</svg>
