<svg width="25" height="25" viewBox="0 0 25 25" fill="none" xmlns="http://www.w3.org/2000/svg">
<path d="M23.6213 9.56911L16.0363 1.98311C15.0975 1.0471 13.8259 0.521484 12.5003 0.521484C11.1746 0.521484 9.90301 1.0471 8.96426 1.98311L1.37926 9.56911C1.09968 9.8469 0.878026 10.1774 0.727139 10.5415C0.576251 10.9056 0.499134 11.296 0.500256 11.6901V21.5071C0.500256 22.3028 0.816327 23.0658 1.37894 23.6284C1.94155 24.191 2.70461 24.5071 3.50026 24.5071H21.5003C22.2959 24.5071 23.059 24.191 23.6216 23.6284C24.1842 23.0658 24.5003 22.3028 24.5003 21.5071V11.6901C24.5014 11.296 24.4243 10.9056 24.2734 10.5415C24.1225 10.1774 23.9008 9.8469 23.6213 9.56911ZM15.5003 22.5071H9.50026V18.5731C9.50026 17.7775 9.81633 17.0144 10.3789 16.4518C10.9415 15.8892 11.7046 15.5731 12.5003 15.5731C13.2959 15.5731 14.059 15.8892 14.6216 16.4518C15.1842 17.0144 15.5003 17.7775 15.5003 18.5731V22.5071ZM22.5003 21.5071C22.5003 21.7723 22.3949 22.0267 22.2074 22.2142C22.0198 22.4018 21.7655 22.5071 21.5003 22.5071H17.5003V18.5731C17.5003 17.247 16.9735 15.9753 16.0358 15.0376C15.0981 14.0999 13.8263 13.5731 12.5003 13.5731C11.1742 13.5731 9.90241 14.0999 8.96472 15.0376C8.02704 15.9753 7.50026 17.247 7.50026 18.5731V22.5071H3.50026C3.23504 22.5071 2.98069 22.4018 2.79315 22.2142C2.60561 22.0267 2.50026 21.7723 2.50026 21.5071V11.6901C2.50118 11.4251 2.60645 11.1711 2.79326 10.9831L10.3783 3.40011C10.942 2.83904 11.7049 2.52405 12.5003 2.52405C13.2956 2.52405 14.0586 2.83904 14.6223 3.40011L22.2073 10.9861C22.3933 11.1734 22.4985 11.4261 22.5003 11.6901V21.5071Z" fill="#2C2E41"/>
</svg>
