<svg width="40" height="40" viewBox="0 0 40 40" fill="none" xmlns="http://www.w3.org/2000/svg">
<rect width="40" height="40" rx="20" fill="#2C2E41" fill-opacity="0.3"/>
<path d="M19.8998 17.8798L15.3098 13.2898C15.1224 13.1036 14.869 12.999 14.6048 12.999C14.3406 12.999 14.0872 13.1036 13.8998 13.2898C13.8061 13.3828 13.7317 13.4934 13.6809 13.6152C13.6301 13.7371 13.604 13.8678 13.604 13.9998C13.604 14.1318 13.6301 14.2625 13.6809 14.3844C13.7317 14.5063 13.8061 14.6169 13.8998 14.7098L18.4998 19.2898C18.5935 19.3828 18.6679 19.4934 18.7187 19.6152C18.7695 19.7371 18.7956 19.8678 18.7956 19.9998C18.7956 20.1318 18.7695 20.2625 18.7187 20.3844C18.6679 20.5063 18.5935 20.6169 18.4998 20.7098L13.8998 25.2898C13.7115 25.4768 13.6052 25.7309 13.6042 25.9963C13.6033 26.2616 13.7078 26.5165 13.8948 26.7048C14.0818 26.8931 14.3359 26.9994 14.6013 27.0004C14.8666 27.0013 15.1215 26.8968 15.3098 26.7098L19.8998 22.1198C20.4616 21.5573 20.7772 20.7948 20.7772 19.9998C20.7772 19.2048 20.4616 18.4423 19.8998 17.8798Z" fill="white"/>
<path d="M24.4998 15V25C24.4998 25.5523 24.9475 26 25.4998 26C26.052 26 26.4998 25.5523 26.4998 25V15C26.4998 14.4477 26.052 14 25.4998 14C24.9475 14 24.4998 14.4477 24.4998 15Z" fill="white"/>
</svg>
