<svg width="40" height="40" viewBox="0 0 40 40" fill="none" xmlns="http://www.w3.org/2000/svg">
<rect width="40" height="40" rx="20" fill="#2C2E41" fill-opacity="0.3"/>
<path d="M13.4998 15V25C13.4998 25.5523 13.9475 26 14.4998 26C15.052 26 15.4998 25.5523 15.4998 25V15C15.4998 14.4477 15.052 14 14.4998 14C13.9475 14 13.4998 14.4477 13.4998 15Z" fill="white"/>
<path d="M22.0999 20.7098C22.0061 20.6169 21.9317 20.5063 21.881 20.3844C21.8302 20.2625 21.8041 20.1318 21.8041 19.9998C21.8041 19.8678 21.8302 19.7371 21.881 19.6152C21.9317 19.4934 22.0061 19.3828 22.0999 19.2898L26.6899 14.7098C26.7836 14.6169 26.858 14.5063 26.9088 14.3844C26.9595 14.2625 26.9857 14.1318 26.9857 13.9998C26.9857 13.8678 26.9595 13.7371 26.9088 13.6152C26.858 13.4934 26.7836 13.3828 26.6899 13.2898C26.5025 13.1036 26.249 12.999 25.9849 12.999C25.7207 12.999 25.4672 13.1036 25.2799 13.2898L20.6899 17.8798C20.1281 18.4423 19.8125 19.2048 19.8125 19.9998C19.8125 20.7948 20.1281 21.5573 20.6899 22.1198L25.2799 26.7098C25.4661 26.8946 25.7175 26.9987 25.9799 26.9998C26.1115 27.0006 26.2419 26.9754 26.3638 26.9256C26.4856 26.8758 26.5964 26.8025 26.6899 26.7098C26.7836 26.6169 26.858 26.5063 26.9088 26.3844C26.9595 26.2625 26.9857 26.1318 26.9857 25.9998C26.9857 25.8678 26.9595 25.7371 26.9088 25.6152C26.858 25.4934 26.7836 25.3828 26.6899 25.2898L22.0999 20.7098Z" fill="white"/>
</svg>
