<svg width="20" height="20" viewBox="0 0 20 20" fill="none" xmlns="http://www.w3.org/2000/svg">
<path d="M11.6327 19.5057C11.4468 19.607 11.2567 19.623 11.0625 19.5538C10.8683 19.4846 10.7205 19.357 10.6192 19.1711L9.02308 15.9788C8.92179 15.7929 8.90577 15.6029 8.975 15.4086C9.04422 15.2144 9.17178 15.0667 9.35768 14.9654C9.54356 14.8641 9.73522 14.8497 9.93265 14.9221C10.1301 14.9945 10.2794 15.1237 10.3807 15.3096L11.9769 18.4923C12.0782 18.6782 12.0926 18.8682 12.0202 19.0625C11.9477 19.2567 11.8186 19.4045 11.6327 19.5057ZM17.6423 19.5057C17.4564 19.607 17.2663 19.623 17.0721 19.5538C16.8779 19.4846 16.7301 19.357 16.6289 19.1711L15.0327 15.9788C14.9314 15.7929 14.9154 15.6029 14.9846 15.4086C15.0538 15.2144 15.1814 15.0667 15.3673 14.9654C15.5532 14.8641 15.7448 14.8497 15.9423 14.9221C16.1397 14.9945 16.2891 15.1237 16.3904 15.3096L17.9865 18.4923C18.0878 18.6782 18.1022 18.8682 18.0298 19.0625C17.9573 19.2567 17.8282 19.4045 17.6423 19.5057ZM5.63265 19.5057C5.44677 19.607 5.25511 19.623 5.05768 19.5538C4.86024 19.4846 4.71088 19.357 4.6096 19.1711L3.01345 15.9788C2.91217 15.7929 2.89774 15.6029 2.97018 15.4086C3.04261 15.2144 3.17178 15.0667 3.35768 14.9654C3.54356 14.8641 3.73362 14.8497 3.92785 14.9221C4.12208 14.9945 4.26983 15.1237 4.3711 15.3096L5.96728 18.4923C6.06856 18.6782 6.08458 18.8682 6.01535 19.0625C5.94612 19.2567 5.81855 19.4045 5.63265 19.5057ZM5.24998 13.5C3.79741 13.5 2.55928 12.9881 1.53558 11.9644C0.511858 10.9407 0 9.70254 0 8.24998C0 6.91153 0.447109 5.74807 1.34133 4.7596C2.23556 3.77115 3.34806 3.19487 4.67882 3.03075C5.19292 2.08717 5.89645 1.34614 6.7894 0.807675C7.68235 0.269225 8.66921 0 9.74998 0C11.2179 0 12.4868 0.477559 13.5567 1.43268C14.6266 2.38781 15.2621 3.57883 15.4634 5.00575C16.6519 5.09293 17.6218 5.5439 18.373 6.35865C19.1243 7.17338 19.5 8.13716 19.5 9.24998C19.5 10.4295 19.0865 11.4327 18.2596 12.2596C17.4327 13.0865 16.4295 13.5 15.25 13.5L5.24998 13.5ZM5.24998 12H15.25C16.0141 12 16.6634 11.7327 17.1981 11.1981C17.7327 10.6635 18 10.0141 18 9.25C18 8.4859 17.7327 7.83653 17.1981 7.3019C16.6634 6.76728 16.0141 6.49998 15.25 6.49998H14V5.74998C14 4.57946 13.5843 3.57849 12.7529 2.74707C11.9215 1.91566 10.9205 1.49995 9.74998 1.49995C8.89869 1.49995 8.12305 1.73104 7.42305 2.19323C6.72303 2.65541 6.19675 3.27561 5.8442 4.05383L5.6615 4.49995H5.19998C4.17946 4.53328 3.30766 4.91149 2.58458 5.63457C1.86149 6.35766 1.49995 7.22946 1.49995 8.24998C1.49995 9.28716 1.86566 10.1715 2.59708 10.9029C3.32849 11.6343 4.21279 12 5.24998 12V12Z" fill="white"/>
</svg>
