<svg width="20" height="20" viewBox="0 0 20 20" fill="none" xmlns="http://www.w3.org/2000/svg">
<g clip-path="url(#clip0_63_12877)">
<path d="M10.0001 13.3334C9.11602 13.3334 8.26817 12.9822 7.64305 12.3571C7.01793 11.732 6.66674 10.8841 6.66674 10.0001C6.66674 9.11601 7.01793 8.26816 7.64305 7.64304C8.26817 7.01792 9.11602 6.66673 10.0001 6.66673C10.8841 6.66673 11.732 7.01792 12.3571 7.64304C12.9822 8.26816 13.3334 9.11601 13.3334 10.0001C13.3334 10.8841 12.9822 11.732 12.3571 12.3571C11.732 12.9822 10.8841 13.3334 10.0001 13.3334ZM10.0001 8.33339C9.55805 8.33339 9.13412 8.50899 8.82156 8.82155C8.509 9.13411 8.33341 9.55803 8.33341 10.0001C8.33341 10.4421 8.509 10.866 8.82156 11.1786C9.13412 11.4911 9.55805 11.6667 10.0001 11.6667C10.4421 11.6667 10.866 11.4911 11.1786 11.1786C11.4911 10.866 11.6667 10.4421 11.6667 10.0001C11.6667 9.55803 11.4911 9.13411 11.1786 8.82155C10.866 8.50899 10.4421 8.33339 10.0001 8.33339ZM10.0001 20.0001C9.09104 19.9991 8.20718 19.7013 7.48291 19.152C6.75864 18.6027 6.23358 17.8318 5.98757 16.9567C5.10813 17.1509 4.18966 17.0592 3.36596 16.6951C2.54225 16.3309 1.85636 15.7132 1.40819 14.932C0.960023 14.1508 0.773 13.2469 0.874366 12.352C0.975733 11.4571 1.36019 10.6179 1.97174 9.95673C-0.861594 7.03089 1.97924 1.95673 6.00007 2.99923C6.25943 2.14019 6.78845 1.38747 7.50885 0.852459C8.22924 0.317446 9.10274 0.0285645 10.0001 0.0285645C10.8974 0.0285645 11.7709 0.317446 12.4913 0.852459C13.2117 1.38747 13.7407 2.14019 14.0001 2.99923C18.0834 1.98589 20.8334 7.01006 18.0242 9.99256C20.8642 12.9409 18.0334 17.8609 14.0126 16.9567C13.7666 17.8318 13.2415 18.6027 12.5172 19.152C11.793 19.7013 10.9091 19.9991 10.0001 20.0001ZM6.66674 15.0001C6.88775 15.0001 7.09972 15.0879 7.256 15.2441C7.41228 15.4004 7.50007 15.6124 7.50007 15.8334C7.50007 16.4964 7.76347 17.1323 8.23231 17.6012C8.70115 18.07 9.33703 18.3334 10.0001 18.3334C10.6631 18.3334 11.299 18.07 11.7678 17.6012C12.2367 17.1323 12.5001 16.4964 12.5001 15.8334C12.5 15.6866 12.5387 15.5424 12.6123 15.4153C12.6859 15.2883 12.7917 15.183 12.9191 15.11C13.0465 15.037 13.1908 14.9989 13.3376 14.9997C13.4845 15.0004 13.6285 15.0399 13.7551 15.1142C16.6434 16.5101 19.0884 12.4626 16.2684 10.7317C16.1383 10.6589 16.0299 10.5528 15.9545 10.4242C15.8791 10.2956 15.8393 10.1492 15.8393 10.0001C15.8393 9.85096 15.8791 9.70456 15.9545 9.57595C16.0299 9.44734 16.1383 9.34118 16.2684 9.26839C19.0292 7.59423 16.7034 3.25256 13.7526 4.89006C13.6257 4.9639 13.4816 5.00291 13.3348 5.00316C13.188 5.0034 13.0438 4.96487 12.9166 4.89146C12.7895 4.81805 12.6841 4.71237 12.6109 4.58511C12.5378 4.45784 12.4995 4.31351 12.5001 4.16673C12.5001 3.50369 12.2367 2.8678 11.7678 2.39896C11.299 1.93012 10.6631 1.66673 10.0001 1.66673C9.33703 1.66673 8.70115 1.93012 8.23231 2.39896C7.76347 2.8678 7.50007 3.50369 7.50007 4.16673C7.50036 4.31315 7.46207 4.45706 7.38905 4.58397C7.31602 4.71088 7.21085 4.81631 7.08412 4.88965C6.95739 4.96299 6.81357 5.00163 6.66715 5.00171C6.52073 5.00178 6.37688 4.96327 6.25007 4.89006C3.33341 3.25673 0.948407 7.56673 3.73174 9.22506C3.86185 9.29796 3.97018 9.40422 4.04557 9.53289C4.12097 9.66156 4.16072 9.80801 4.16072 9.95714C4.16072 10.1063 4.12097 10.2527 4.04557 10.3814C3.97018 10.5101 3.86185 10.6163 3.73174 10.6892C0.94174 12.4501 3.30341 16.5001 6.24507 15.1142C6.37298 15.0394 6.51853 14.9999 6.66674 15.0001Z" fill="#14C7A2"/>
</g>
<defs>
<clipPath id="clip0_63_12877">
<rect width="20" height="20" fill="white"/>
</clipPath>
</defs>
</svg>
