<svg width="37" height="37" viewBox="0 0 37 37" fill="none" xmlns="http://www.w3.org/2000/svg">
<g clip-path="url(#clip0_63_7413)">
<path d="M2.91017 27.5C4.1509 29.6534 6.90244 30.3932 9.05583 29.1525C9.05731 29.1516 9.05872 29.1508 9.06019 29.15L9.72767 28.7644C10.9877 29.8425 12.436 30.6785 13.9996 31.2304V32C13.9996 34.4853 16.0144 36.5 18.4996 36.5C20.9849 36.5 22.9996 34.4853 22.9996 32V31.2305C24.5635 30.6776 26.0119 29.8406 27.2716 28.7615L27.9421 29.1485C30.096 30.3911 32.8495 29.6524 34.0921 27.4985C35.3348 25.3446 34.5961 22.5911 32.4421 21.3484L31.7761 20.9645C32.0759 19.3331 32.0759 17.6608 31.7761 16.0294L32.4421 15.6455C34.596 14.4028 35.3348 11.6494 34.0921 9.49543C32.8495 7.34155 30.0961 6.60277 27.9421 7.84541L27.2746 8.23093C26.0134 7.15423 24.5641 6.31977 22.9996 5.7695V5C22.9996 2.51473 20.9849 0.5 18.4996 0.5C16.0144 0.5 13.9996 2.51473 13.9996 5V5.7695C12.4358 6.32237 10.9874 7.15937 9.72767 8.23852L9.05717 7.85005C6.90322 6.60734 4.14978 7.34612 2.90715 9.5C1.66451 11.6539 2.40322 14.4074 4.55717 15.65L5.22317 16.034C4.92336 17.6653 4.92336 19.3376 5.22317 20.969L4.55717 21.353C2.40919 22.5989 1.67288 25.347 2.91017 27.5ZM18.4996 12.5C21.8133 12.5 24.4996 15.1863 24.4996 18.5C24.4996 21.8137 21.8133 24.5 18.4996 24.5C15.186 24.5 12.4997 21.8137 12.4997 18.5C12.4997 15.1863 15.186 12.5 18.4996 12.5Z" fill="#2C2E41"/>
</g>
<defs>
<clipPath id="clip0_63_7413">
<rect width="36" height="36" fill="white" transform="translate(0.5 0.5)"/>
</clipPath>
</defs>
</svg>
