<svg width="25" height="25" viewBox="0 0 25 25" fill="none" xmlns="http://www.w3.org/2000/svg">
<g clip-path="url(#clip0_63_7293)">
<path d="M12.5001 8.50049C11.709 8.50049 10.9356 8.73508 10.2778 9.17461C9.62005 9.61414 9.10736 10.2388 8.80461 10.9698C8.50186 11.7007 8.42264 12.5049 8.57698 13.2808C8.73132 14.0568 9.11229 14.7695 9.6717 15.3289C10.2311 15.8883 10.9438 16.2693 11.7198 16.4236C12.4957 16.578 13.3 16.4988 14.0309 16.196C14.7618 15.8933 15.3865 15.3806 15.826 14.7228C16.2655 14.065 16.5001 13.2916 16.5001 12.5005C16.5001 11.4396 16.0787 10.4222 15.3286 9.67206C14.5784 8.92192 13.561 8.50049 12.5001 8.50049ZM12.5001 14.5005C12.1046 14.5005 11.7179 14.3832 11.389 14.1634C11.0601 13.9437 10.8037 13.6313 10.6524 13.2659C10.501 12.9004 10.4614 12.4983 10.5386 12.1103C10.6157 11.7223 10.8062 11.366 11.0859 11.0863C11.3656 10.8066 11.722 10.6161 12.1099 10.5389C12.4979 10.4617 12.9 10.5014 13.2655 10.6527C13.6309 10.8041 13.9433 11.0604 14.1631 11.3893C14.3828 11.7182 14.5001 12.1049 14.5001 12.5005C14.5001 13.0309 14.2894 13.5396 13.9143 13.9147C13.5393 14.2898 13.0306 14.5005 12.5001 14.5005Z" fill="#2C2E41"/>
<path d="M21.794 14.4L21.35 14.144C21.5499 13.0564 21.5499 11.9416 21.35 10.854L21.794 10.598C22.1355 10.401 22.4348 10.1387 22.6748 9.82606C22.9149 9.51341 23.091 9.15654 23.1932 8.77582C23.2953 8.3951 23.3215 7.99799 23.2702 7.60716C23.2188 7.21633 23.091 6.83944 22.894 6.498C22.6971 6.15656 22.4348 5.85727 22.1221 5.6172C21.8095 5.37714 21.4526 5.20101 21.0719 5.09886C20.6911 4.99672 20.294 4.97056 19.9032 5.02189C19.5124 5.07321 19.1355 5.20102 18.794 5.398L18.349 5.655C17.5086 4.93692 16.5427 4.38025 15.5 4.013V3.5C15.5 2.70435 15.184 1.94129 14.6214 1.37868C14.0588 0.81607 13.2957 0.5 12.5 0.5C11.7044 0.5 10.9413 0.81607 10.3787 1.37868C9.81611 1.94129 9.50004 2.70435 9.50004 3.5V4.013C8.45743 4.38157 7.49189 4.9396 6.65204 5.659L6.20504 5.4C5.51548 5.00218 4.69612 4.89457 3.92723 5.10086C3.15833 5.30715 2.50287 5.81044 2.10504 6.5C1.70722 7.18956 1.59962 8.00892 1.80591 8.77782C2.0122 9.54672 2.51548 10.2022 3.20504 10.6L3.64904 10.856C3.44915 11.9436 3.44915 13.0584 3.64904 14.146L3.20504 14.402C2.51548 14.7998 2.0122 15.4553 1.80591 16.2242C1.59962 16.9931 1.70722 17.8124 2.10504 18.502C2.50287 19.1916 3.15833 19.6948 3.92723 19.9011C4.69612 20.1074 5.51548 19.9998 6.20504 19.602L6.65004 19.345C7.49081 20.0632 8.45702 20.6199 9.50004 20.987V21.5C9.50004 22.2956 9.81611 23.0587 10.3787 23.6213C10.9413 24.1839 11.7044 24.5 12.5 24.5C13.2957 24.5 14.0588 24.1839 14.6214 23.6213C15.184 23.0587 15.5 22.2956 15.5 21.5V20.987C16.5427 20.6184 17.5082 20.0604 18.348 19.341L18.795 19.599C19.4846 19.9968 20.304 20.1044 21.0729 19.8981C21.8418 19.6918 22.4972 19.1886 22.895 18.499C23.2929 17.8094 23.4005 16.9901 23.1942 16.2212C22.9879 15.4523 22.4846 14.7968 21.795 14.399L21.794 14.4ZM19.246 10.624C19.5847 11.8511 19.5847 13.1469 19.246 14.374C19.1869 14.5876 19.2004 14.8147 19.2844 15.0198C19.3684 15.2249 19.5181 15.3963 19.71 15.507L20.794 16.133C21.0239 16.2656 21.1916 16.4841 21.2603 16.7403C21.329 16.9966 21.2932 17.2697 21.1605 17.4995C21.0279 17.7293 20.8095 17.897 20.5532 17.9658C20.2969 18.0345 20.0239 17.9986 19.794 17.866L18.708 17.238C18.5159 17.1267 18.2923 17.0826 18.0723 17.1124C17.8523 17.1423 17.6485 17.2445 17.493 17.403C16.603 18.3117 15.4816 18.96 14.25 19.278C14.0351 19.3333 13.8446 19.4585 13.7086 19.6339C13.5727 19.8094 13.4989 20.025 13.499 20.247V21.5C13.499 21.7652 13.3937 22.0196 13.2062 22.2071C13.0186 22.3946 12.7643 22.5 12.499 22.5C12.2338 22.5 11.9795 22.3946 11.7919 22.2071C11.6044 22.0196 11.499 21.7652 11.499 21.5V20.248C11.4992 20.026 11.4254 19.8104 11.2894 19.6349C11.1535 19.4595 10.963 19.3343 10.748 19.279C9.51639 18.9597 8.39537 18.31 7.50604 17.4C7.35057 17.2415 7.14678 17.1393 6.9268 17.1094C6.70682 17.0796 6.48315 17.1237 6.29104 17.235L5.20704 17.862C5.09327 17.9287 4.96743 17.9722 4.83677 17.9901C4.7061 18.008 4.5732 17.9998 4.4457 17.9661C4.3182 17.9324 4.19862 17.8738 4.09386 17.7937C3.9891 17.7136 3.90122 17.6135 3.83528 17.4993C3.76934 17.3851 3.72664 17.259 3.70964 17.1282C3.69264 16.9974 3.70168 16.8646 3.73623 16.7373C3.77079 16.61 3.83017 16.4909 3.91098 16.3866C3.99178 16.2824 4.0924 16.1952 4.20704 16.13L5.29104 15.504C5.48299 15.3933 5.63272 15.2219 5.7167 15.0168C5.80069 14.8117 5.81417 14.5846 5.75504 14.371C5.4164 13.1439 5.4164 11.8481 5.75504 10.621C5.81311 10.4079 5.79898 10.1815 5.71486 9.97729C5.63074 9.77305 5.48136 9.60241 5.29004 9.492L4.20604 8.866C3.97623 8.73339 3.80851 8.51492 3.73978 8.25865C3.67105 8.00239 3.70693 7.72931 3.83954 7.4995C3.97215 7.26969 4.19062 7.10197 4.44689 7.03324C4.70316 6.96451 4.97623 7.00039 5.20604 7.133L6.29204 7.761C6.48362 7.87251 6.70682 7.91721 6.92657 7.88807C7.14632 7.85893 7.35015 7.75759 7.50604 7.6C8.39613 6.69134 9.51747 6.04302 10.749 5.725C10.9647 5.66956 11.1556 5.54375 11.2917 5.3675C11.4277 5.19125 11.501 4.97464 11.5 4.752V3.5C11.5 3.23478 11.6054 2.98043 11.7929 2.79289C11.9805 2.60536 12.2348 2.5 12.5 2.5C12.7653 2.5 13.0196 2.60536 13.2071 2.79289C13.3947 2.98043 13.5 3.23478 13.5 3.5V4.752C13.4999 4.97396 13.5737 5.18964 13.7096 5.36508C13.8456 5.54052 14.0361 5.66573 14.251 5.721C15.4831 6.04015 16.6044 6.68988 17.494 7.6C17.6495 7.75847 17.8533 7.86069 18.0733 7.89057C18.2933 7.92044 18.5169 7.87626 18.709 7.765L19.793 7.138C19.9068 7.0713 20.0327 7.02777 20.1633 7.0099C20.294 6.99204 20.4269 7.00019 20.5544 7.0339C20.6819 7.06761 20.8015 7.1262 20.9062 7.20631C21.011 7.28642 21.0989 7.38646 21.1648 7.50067C21.2307 7.61488 21.2734 7.74101 21.2904 7.87179C21.3074 8.00257 21.2984 8.13542 21.2639 8.26269C21.2293 8.38997 21.1699 8.50915 21.0891 8.61337C21.0083 8.7176 20.9077 8.80482 20.793 8.87L19.709 9.496C19.5181 9.60671 19.3691 9.77748 19.2854 9.98169C19.2016 10.1859 19.1878 10.4121 19.246 10.625V10.624Z" fill="#2C2E41"/>
</g>
<defs>
<clipPath id="clip0_63_7293">
<rect width="24" height="24" fill="white" transform="translate(0.5 0.5)"/>
</clipPath>
</defs>
</svg>
