<svg width="33" height="32" viewBox="0 0 33 32" fill="none" xmlns="http://www.w3.org/2000/svg">
<g clip-path="url(#clip0_106_15860)">
<path d="M28.2424 5.72082C28.1185 5.59694 27.9714 5.49867 27.8096 5.43163C27.6477 5.36459 27.4742 5.33008 27.299 5.33008C27.1238 5.33008 26.9504 5.36459 26.7885 5.43163C26.6267 5.49867 26.4796 5.59694 26.3557 5.72082C26.2318 5.8447 26.1336 5.99177 26.0665 6.15362C25.9995 6.31548 25.965 6.48896 25.965 6.66415C25.965 6.83935 25.9995 7.01282 26.0665 7.17468C26.1336 7.33654 26.2318 7.48361 26.3557 7.60749C28.5783 9.83536 29.8265 12.8538 29.8265 16.0008C29.8265 19.1478 28.5783 22.1663 26.3557 24.3942C26.1055 24.6443 25.965 24.9837 25.965 25.3375C25.965 25.6913 26.1055 26.0306 26.3557 26.2808C26.6059 26.531 26.9452 26.6716 27.299 26.6716C27.6529 26.6716 27.9922 26.531 28.2424 26.2808C30.9647 23.5522 32.4936 19.8552 32.4936 16.0008C32.4936 12.1464 30.9647 8.44939 28.2424 5.72082Z" fill="#2C2E41"/>
<path d="M24.6336 9.72122C24.5097 9.59691 24.3625 9.49821 24.2005 9.43076C24.0385 9.36331 23.8648 9.32844 23.6893 9.32813C23.5138 9.32782 23.3399 9.36208 23.1776 9.42895C23.0154 9.49583 22.8679 9.59401 22.7436 9.71789C22.6192 9.84177 22.5205 9.98892 22.4531 10.1509C22.3856 10.313 22.3508 10.4867 22.3505 10.6622C22.3502 10.8377 22.3844 11.0115 22.4513 11.1738C22.5182 11.3361 22.6164 11.4836 22.7402 11.6079C23.9039 12.7733 24.5575 14.353 24.5575 15.9999C24.5575 17.6468 23.9039 19.2264 22.7402 20.3919C22.6164 20.5162 22.5182 20.6637 22.4513 20.826C22.3844 20.9882 22.3502 21.1621 22.3505 21.3376C22.3508 21.5131 22.3856 21.6868 22.4531 21.8488C22.5205 22.0108 22.6192 22.158 22.7436 22.2819C22.9946 22.5321 23.3348 22.6723 23.6893 22.6716C23.8648 22.6713 24.0385 22.6365 24.2005 22.569C24.3625 22.5016 24.5097 22.4029 24.6336 22.2785C26.2967 20.6122 27.2307 18.3541 27.2307 15.9999C27.2307 13.6456 26.2967 11.3875 24.6336 9.72122Z" fill="#2C2E41"/>
<path d="M18.9267 0.267141C14.8724 1.02883 11.2662 3.32027 8.85467 6.66714L7.16667 6.66714C5.39942 6.66996 3.70537 7.37325 2.45574 8.62288C1.20611 9.87251 0.502821 11.5666 0.5 13.3338L0.5 18.6671C0.502821 20.4344 1.20611 22.1284 2.45574 23.3781C3.70537 24.6277 5.39942 25.331 7.16667 25.3338H8.85467C11.2667 28.6802 14.8727 30.9715 18.9267 31.7338C19.0062 31.7493 19.087 31.7569 19.168 31.7565C19.5216 31.7565 19.8608 31.616 20.1108 31.3659C20.3609 31.1159 20.5013 30.7768 20.5013 30.4231V1.58181C20.5018 1.38599 20.4592 1.19246 20.3764 1.01498C20.2937 0.837507 20.1728 0.680437 20.0225 0.554937C19.8722 0.429438 19.6961 0.338589 19.5067 0.288848C19.3173 0.239108 19.1193 0.231696 18.9267 0.267141ZM17.8333 28.7138C14.8925 27.7763 12.3638 25.8555 10.672 23.2738C10.5511 23.0878 10.3858 22.935 10.1909 22.829C9.99602 22.7231 9.7778 22.6675 9.556 22.6671H7.16667C6.1058 22.6671 5.08839 22.2457 4.33824 21.4956C3.58809 20.7454 3.16667 19.728 3.16667 18.6671V13.3338C3.16667 12.2729 3.58809 11.2555 4.33824 10.5054C5.08839 9.75523 6.1058 9.33381 7.16667 9.33381H9.56667C9.78822 9.33378 10.0063 9.27854 10.2011 9.17308C10.396 9.06763 10.5615 8.91528 10.6827 8.72981C12.3711 6.14879 14.8958 4.22707 17.8333 3.28714V28.7138Z" fill="#2C2E41"/>
</g>
<defs>
<clipPath id="clip0_106_15860">
<rect width="32" height="32" fill="white" transform="translate(0.5)"/>
</clipPath>
</defs>
</svg>
